<svg width="14" height="30" viewBox="0 0 14 30" fill="none" xmlns="http://www.w3.org/2000/svg">
<path d="M7.18375 29.4C5.07708 29.4 3.46375 28.8 2.34375 27.6C1.25042 26.4 0.70375 24.7067 0.70375 22.52V7.48C0.70375 5.29333 1.25042 3.6 2.34375 2.4C3.46375 1.2 5.07708 0.599998 7.18375 0.599998C9.29042 0.599998 10.8904 1.2 11.9838 2.4C13.1038 3.6 13.6638 5.29333 13.6638 7.48V10.44H9.50375V7.2C9.50375 5.46667 8.77042 4.6 7.30375 4.6C5.83708 4.6 5.10375 5.46667 5.10375 7.2V22.84C5.10375 24.5467 5.83708 25.4 7.30375 25.4C8.77042 25.4 9.50375 24.5467 9.50375 22.84V18.56H13.6638V22.52C13.6638 24.7067 13.1038 26.4 11.9838 27.6C10.8904 28.8 9.29042 29.4 7.18375 29.4Z" fill="#FF0000"/>
</svg>
