<svg width="11" height="11" viewBox="0 0 11 11" fill="none" xmlns="http://www.w3.org/2000/svg">
<g clip-path="url(#clip0_65_1020)">
<path d="M5.28234 1.05191C5.30243 1.01133 5.33346 0.977168 5.37193 0.953286C5.41039 0.929403 5.45477 0.916748 5.50005 0.916748C5.54533 0.916748 5.58971 0.929403 5.62818 0.953286C5.66665 0.977168 5.69767 1.01133 5.71776 1.05191L6.77651 3.19645C6.84626 3.3376 6.94922 3.45972 7.07655 3.55232C7.20388 3.64493 7.35178 3.70525 7.50755 3.72812L9.8753 4.07462C9.92017 4.08112 9.96232 4.10004 9.99698 4.12925C10.0317 4.15846 10.0575 4.19678 10.0715 4.23989C10.0855 4.283 10.0872 4.32918 10.0763 4.37319C10.0655 4.4172 10.0425 4.4573 10.0101 4.48895L8.29772 6.15637C8.18479 6.26641 8.1003 6.40225 8.05152 6.5522C8.00273 6.70214 7.99112 6.86169 8.01768 7.01712L8.42193 9.37295C8.42985 9.41779 8.425 9.46396 8.40795 9.50618C8.39089 9.5484 8.36231 9.58498 8.32547 9.61174C8.28862 9.6385 8.245 9.65437 8.19957 9.65753C8.15415 9.66069 8.10875 9.65102 8.06855 9.62962L5.95197 8.51678C5.81251 8.44355 5.65734 8.40529 5.49982 8.40529C5.3423 8.40529 5.18714 8.44355 5.04768 8.51678L2.93155 9.62962C2.89137 9.65089 2.84603 9.66046 2.80068 9.65723C2.75532 9.65401 2.71179 9.63812 2.67502 9.61138C2.63825 9.58464 2.60973 9.54812 2.59269 9.50597C2.57565 9.46382 2.57078 9.41773 2.57864 9.37295L2.98243 7.01757C3.0091 6.86208 2.99754 6.70242 2.94876 6.55239C2.89997 6.40235 2.81541 6.26644 2.70239 6.15637L0.990052 4.48941C0.957324 4.4578 0.934132 4.41763 0.923118 4.37348C0.912104 4.32934 0.91371 4.28298 0.927755 4.2397C0.941799 4.19642 0.967716 4.15796 1.00255 4.12869C1.03739 4.09942 1.07975 4.08053 1.1248 4.07416L3.49209 3.72812C3.64804 3.70543 3.79615 3.64518 3.92365 3.55257C4.05116 3.45995 4.15425 3.33774 4.22405 3.19645L5.28234 1.05191Z" stroke="white" stroke-linecap="round" stroke-linejoin="round"/>
</g>
<defs>
<clipPath id="clip0_65_1020">
<rect width="11" height="11" fill="white"/>
</clipPath>
</defs>
</svg>
